<svg xmlns="http://www.w3.org/2000/svg" width="768" height="1365" viewBox="0 0 768 1365" fill="none">
  <defs>
    <linearGradient id="skin" x1="384" y1="224" x2="384" y2="1152" gradientUnits="userSpaceOnUse">
      <stop stop-color="#E9C3A6"/>
      <stop offset="1" stop-color="#D5A284"/>
    </linearGradient>
    <linearGradient id="skinDark" x1="384" y1="305" x2="384" y2="1128" gradientUnits="userSpaceOnUse">
      <stop stop-color="#C68F72"/>
      <stop offset="1" stop-color="#A96F54"/>
    </linearGradient>
    <linearGradient id="shorts" x1="384" y1="705" x2="384" y2="1016" gradientUnits="userSpaceOnUse">
      <stop stop-color="#2E2E2E"/>
      <stop offset="1" stop-color="#111"/>
    </linearGradient>
    <linearGradient id="hair" x1="384" y1="118" x2="384" y2="302" gradientUnits="userSpaceOnUse">
      <stop stop-color="#524541"/>
      <stop offset="1" stop-color="#302724"/>
    </linearGradient>
    <filter id="soft" x="-20%" y="-20%" width="140%" height="140%">
      <feGaussianBlur stdDeviation="6"/>
    </filter>
  </defs>

  <rect width="768" height="1365" fill="black"/>

  <ellipse cx="384" cy="1292" rx="164" ry="22" fill="#000" opacity=".18" filter="url(#soft)"/>

  <path d="M322 136c12-37 43-60 62-60s50 23 62 60l-12 112h-100l-12-112Z" fill="url(#hair)"/>
  <path d="M324 134c18-18 41-30 60-30s42 12 60 30l-14 124h-92l-14-124Z" fill="url(#hair)"/>
  <rect x="348" y="236" width="72" height="54" rx="24" fill="url(#skin)"/>

  <path d="M250 322c25-69 76-112 134-112 58 0 109 43 134 112l44 362c4 35-22 63-57 63H263c-35 0-61-28-57-63l44-362Z" fill="url(#skin)"/>
  <path d="M338 310c17-27 31-39 46-39 15 0 29 12 46 39l18 335c0 29-29 57-64 57s-64-28-64-57l18-335Z" fill="url(#skinDark)" opacity=".24"/>

  <path d="M268 359c-37 19-63 54-75 100l-29 155c-8 43 8 87 40 110l29-279 35-86Z" fill="url(#skin)"/>
  <path d="M500 359c37 19 63 54 75 100l29 155c8 43-8 87-40 110l-29-279-35-86Z" fill="url(#skin)"/>

  <path d="M224 500c19-13 45-7 57 13l40 66c12 20 6 46-14 58-20 12-46 6-58-14l-39-66c-12-20-6-46 14-57Z" fill="url(#skin)"/>
  <path d="M487 513c12-20 38-26 58-14 20 12 26 38 14 58l-39 66c-12 20-38 26-58 14-20-12-26-38-14-58l39-66Z" fill="url(#skin)"/>

  <path d="M200 623c23-11 50-1 61 22l58 122c11 23 1 50-22 61s-50 1-61-22l-58-122c-11-23-1-50 22-61Z" fill="url(#skin)"/>
  <path d="M507 645c11-23 38-33 61-22 23 11 33 38 22 61l-58 122c-11 23-38 33-61 22-23-11-33-38-22-61l58-122Z" fill="url(#skin)"/>

  <path d="M216 798c17-8 37-1 46 16l22 44c9 17 2 38-15 47-17 9-38 2-47-15l-23-44c-9-17-2-38 17-48Z" fill="url(#skin)"/>
  <path d="M506 814c9-17 30-24 47-15 17 9 24 30 15 47l-23 44c-9 17-30 24-47 15-17-9-24-30-15-47l23-44Z" fill="url(#skin)"/>

  <path d="M278 687h212c38 0 68 30 68 68v164c0 21-17 38-38 38H248c-21 0-38-17-38-38V755c0-38 30-68 68-68Z" fill="url(#shorts)"/>
  <path d="M372 690h24v268h-24z" fill="#2D2D2D" opacity=".7"/>
  <path d="M215 724c53 8 97 12 169 12s116-4 169-12c-20-23-48-37-79-37H294c-31 0-59 14-79 37Z" fill="#3A3A3A" opacity=".4"/>

  <path d="M301 930c16-14 36-21 56-21s40 7 56 21l-5 126h-102l-5-126Z" fill="url(#skin)"/>
  <path d="M312 1048h144l-16 170c-4 42-39 74-81 74-42 0-77-32-81-74l34-170Z" fill="url(#skin)"/>
  <path d="M300 937c-22 8-41 28-48 55l-43 168c-12 48 11 98 55 120l17-68-2-110 21-165Z" fill="url(#skin)"/>
  <path d="M468 937c22 8 41 28 48 55l43 168c12 48-11 98-55 120l-17-68 2-110-21-165Z" fill="url(#skin)"/>

  <path d="M286 1192c22-10 47 0 57 22l16 36c10 22 0 48-22 58-22 10-48 0-58-22l-16-36c-10-22 0-48 23-58Z" fill="url(#skin)"/>
  <path d="M425 1214c10-22 36-32 58-22 22 10 32 36 22 58l-16 36c-10 22-36 32-58 22-22-10-32-36-22-58l16-36Z" fill="url(#skin)"/>

  <path d="M332 345c18-27 34-39 52-39 18 0 34 12 52 39" stroke="#A56F56" stroke-linecap="round" stroke-opacity=".55" stroke-width="10"/>
  <path d="M286 397c22 33 35 73 39 119" stroke="#A56F56" stroke-linecap="round" stroke-opacity=".35" stroke-width="8"/>
  <path d="M482 397c-22 33-35 73-39 119" stroke="#A56F56" stroke-linecap="round" stroke-opacity=".35" stroke-width="8"/>
  <path d="M384 338v343" stroke="#8B5B45" stroke-linecap="round" stroke-opacity=".4" stroke-width="8"/>
</svg>
